<?xml version="1.0" encoding="UTF-8"?>
<svg width="947px" height="242px" viewBox="0 0 947 242" version="1.1" xmlns="http://www.w3.org/2000/svg" xmlns:xlink="http://www.w3.org/1999/xlink">
    <!-- Generator: Sketch 63.1 (92452) - https://sketch.com -->
    <title>internal logos copy_NineStack</title>
    <desc>Created with Sketch.</desc>
    <g id="Page-1" stroke="none" stroke-width="1" fill="none" fill-rule="evenodd">
        <g id="internal-logos-copy_NineStack" fill-rule="nonzero">
            <g id="Group">
                <path d="M99.2,80.7 C99.4,80.2 99.6,79.8 99.8,79.3 C99.5,79.8 99.3,80.2 99.2,80.7 Z" id="Path" fill="#EC1B5D"></path>
                <path d="M34.7,73.7 C35,72 35.4,70.3 35.8,68.6 C35.4,70.3 35,72 34.7,73.7 Z" id="Path" fill="#EC1B5D"></path>
                <g transform="translate(0.000000, 79.000000)" fill="#708094" id="Path">
                    <path d="M227.2,8.6 C212.7,2.8 194.3,1.5 183.6,1.3 C184.3,-1.9 182.3,6.9 180.3,14.3 C156.8,14.5 133.4,14.3 109.9,14.4 C106.7,14.4 103.2,14.4 100.8,11.9 C98.1,9.4 97.9,5.4 99.1,2 C99,2.3 98.9,2.5 98.8,2.8 C81.3,3 46.6,5.8 32.6,7 C31.4,16.1 31.2,25.3 32.6,34.4 C32.7,34.7 32.7,35.1 32.8,35.4 C32.9,36.2 33.1,37 33.2,37.9 C35.9,46.4 40.4,55 48.2,59.8 C57.7,66.1 69.4,67.9 80.6,68.1 C109.3,68.1 137.9,68 166.5,68.1 C164.9,73.8 164.3,80 161.3,85.2 C158.2,90.3 151.9,91.5 146.5,91.4 C103.7,91.4 61,91.5 18.3,91.4 C12.3,114.9 6.2,138.3 0.4,161.8 C42.6,161.8 84.8,161.8 127,161.8 C150.4,162.3 175.3,159.3 194.9,145.2 C209.1,135.2 219.2,120.3 225.4,104.2 C231.6,88.7 234.4,72.1 239.3,56.2 C240.8,49.2 242.6,42.4 244.4,35.5 C244.5,35.2 244.6,34.8 244.7,34.5 C245.5,31.4 246.3,28.3 247,25.2 C247,25 247,24.8 247,24.6 C242.7,18.2 235.8,12 227.2,8.6 Z"></path>
                    <path d="M32.6,7.1 L32.6,7.1 C32.7,6.8 32.7,6.5 32.7,6.2 C32.7,6.6 32.6,6.9 32.6,7.1 Z"></path>
                </g>
                <path d="M33.5,79.9 C33.8,78.2 34.1,76.4 34.5,74.7 C34.1,76.4 33.8,78.1 33.5,79.9 Z" id="Path" fill="#EC1B5D"></path>
                <path d="M247,102.8 C247,102.6 247,102.3 247,102.1 C247,102 247,102 247,101.9 C247,102.2 247,102.5 247,102.8 Z" id="Path" fill="#EC1B5D"></path>
                <path d="M37.2,62.9 C36.8,64.5 36.4,66.1 36,67.8 C36.4,66.1 36.8,64.5 37.2,62.9 L37.2,62.9 Z" id="Path" fill="#EC1B5D"></path>
                <path d="M35.8,68.6 C35.9,68.3 35.9,68 36,67.8 C35.9,68 35.8,68.3 35.8,68.6 Z" id="Path" fill="#EC1B5D"></path>
                <path d="M246.9,103.7 C246.9,103.4 246.9,103.1 246.9,102.8 C246.9,103.1 246.9,103.4 246.9,103.7 L246.9,103.7 Z" id="Path" fill="#EC1B5D"></path>
                <path d="M34.5,74.7 C34.6,74.4 34.6,74 34.7,73.7 C34.6,74 34.5,74.3 34.5,74.7 Z" id="Path" fill="#EC1B5D"></path>
                <path d="M99,81.1 C99,81 99.1,80.8 99.1,80.7 C99.1,80.8 99.1,81 99,81.1 Z" id="Path" fill="#EC1B5D"></path>
                <path d="M33.4,80.6 C33.4,80.3 33.5,80.1 33.5,79.8 C33.5,80.1 33.4,80.4 33.4,80.6 Z" id="Path" fill="#EC1B5D"></path>
                <path d="M246.9,100.6 C246.9,100.5 246.9,100.4 246.9,100.3 C246.7,95.8 245.7,91.4 243,87.8 C239.2,82.4 233.1,79.2 227.1,76.9 C213.9,72.2 199.7,71.3 185.8,70.8 L185.7,70.8 C185,74 184.3,77.1 183.5,80.3 C194.2,80.5 212.6,81.8 227.1,87.6 C235.7,91 242.6,97.2 246.8,103.7 C246.8,103.4 246.8,103.1 246.8,102.8 C246.8,102.5 246.8,102.2 246.8,101.9 C247,101.5 247,101 246.9,100.6 Z" id="Path" fill="#425665"></path>
                <path d="M98.8,81.9 C98.9,81.6 99,81.3 99.1,81.1 C99.1,81 99.2,80.8 99.2,80.7 C99.4,80.2 99.6,79.8 99.8,79.3 C101.7,75.1 105.6,72.3 109.8,70.8 C97.1,70.8 84.5,70.8 71.8,70.7 C59.9,70.5 47.9,68.4 37.3,62.9 L37.2,62.9 C36.8,64.5 36.4,66.1 36,67.8 C35.9,68.1 35.9,68.3 35.8,68.6 C35.4,70.3 35,72 34.7,73.7 C34.6,74 34.6,74.4 34.5,74.7 C34.2,76.4 33.8,78.2 33.5,79.9 C33.5,80.2 33.4,80.4 33.4,80.7 C33.1,82.5 32.8,84.4 32.6,86.2 C46.5,84.9 81.2,82.1 98.8,81.9 Z" id="Path" fill="#425665"></path>
                <path d="M250.7,27.8 C243.9,15.6 231,8.6 218.1,4.9 C202.9,0.6 187,0.1 171.3,0.3 C118.2,0.3 65.1,0.3 12.1,0.3 C10.1,12.7 10.6,25.8 15.1,37.6 C17.1,43.1 20.3,48.2 24.1,52.5 C27.8,56.6 32.2,60.1 37.1,62.7 C37.1,62.6 37.2,62.4 37.2,62.3 C47.8,67.8 59.9,70 71.7,70.1 C84.8,70.2 97.9,70.1 111,70.2 C110.5,70.3 110.1,70.5 109.7,70.6 C110.2,70.6 110.6,70.6 111,70.6 C135.9,70.5 160.8,70.5 185.7,70.6 C185.7,70.5 185.8,70.3 185.8,70.2 C199.7,70.7 213.9,71.5 227.1,76.3 C233.1,78.6 239.1,81.8 243,87.2 C243.4,87.8 243.9,88.4 244.2,89 C244.3,89.2 244.4,89.4 244.5,89.7 C244.7,90.1 245,90.6 245.1,91 C245.2,91.3 245.3,91.5 245.4,91.8 C245.6,92.2 245.7,92.6 245.8,93.1 C245.9,93.4 246,93.7 246,94 C246.1,94.4 246.2,94.8 246.3,95.2 C246.3,95.5 246.4,95.8 246.4,96.1 C246.5,96.5 246.5,96.9 246.6,97.3 C246.6,97.6 246.7,97.9 246.7,98.2 C246.7,98.6 246.8,99 246.8,99.5 C246.8,99.8 246.8,100.1 246.8,100.4 C246.8,100.8 246.8,101.2 246.8,101.7 C246.8,101.8 246.8,101.8 246.8,101.9 C246.8,102.8 246.8,103.7 246.8,104.5 C249.6,93.5 252.7,82.6 255.1,71.5 C255.9,67.5 256.4,63.4 256.7,59.3 C257.5,48.6 256.2,37.4 250.7,27.8 Z" id="Path" fill="#EC1B5D"></path>
                <path d="M245.2,91.2 C245.3,91.5 245.4,91.7 245.5,92 C245.4,91.7 245.3,91.4 245.2,91.2 Z" id="Path" fill="#EC1B5D"></path>
                <path d="M244.2,89.2 C244.3,89.4 244.4,89.6 244.5,89.9 C244.5,89.6 244.4,89.4 244.2,89.2 Z" id="Path" fill="#EC1B5D"></path>
                <path d="M246.4,95.3 C246.4,95.6 246.5,95.9 246.5,96.2 C246.5,95.9 246.5,95.6 246.4,95.3 Z" id="Path" fill="#EC1B5D"></path>
                <path d="M245.9,93.2 C246,93.5 246.1,93.8 246.1,94.1 C246,93.8 246,93.5 245.9,93.2 Z" id="Path" fill="#EC1B5D"></path>
                <path d="M37.2,62.5 C37.2,62.6 37.1,62.8 37.1,62.9 L37.1,62.9 C37.2,62.7 37.2,62.6 37.2,62.5 Z" id="Path" fill="#EC1B5D"></path>
                <path d="M246.9,100.6 L246.9,100.6 C246.9,100.4 246.9,100.1 246.9,99.7 C246.9,99.9 246.9,100.1 246.9,100.3 C246.9,100.4 246.9,100.5 246.9,100.6 Z" id="Path" fill="#EC1B5D"></path>
                <path d="M246.7,97.5 C246.7,97.8 246.8,98.1 246.8,98.4 C246.8,98.1 246.8,97.8 246.7,97.5 Z" id="Path" fill="#EC1B5D"></path>
                <path d="M185.8,70.4 C185.8,70.5 185.7,70.7 185.7,70.8 L185.7,70.8 C185.8,70.7 185.8,70.5 185.8,70.4 Z" id="Path" fill="#EC1B5D"></path>
                <path d="M243,87.4 C243.4,88 243.9,88.6 244.2,89.2 C243.9,88.6 243.5,88 243,87.4 Z" id="Path" fill="#EC1B5D"></path>
                <path d="M246.6,96.3 C246.7,96.7 246.7,97.1 246.8,97.5 C246.7,97.1 246.6,96.7 246.6,96.3 Z" id="Path" fill="#EC1B5D"></path>
                <path d="M246.1,94.1 C246.2,94.5 246.3,94.9 246.4,95.3 C246.3,94.9 246.2,94.5 246.1,94.1 Z" id="Path" fill="#EC1B5D"></path>
                <path d="M245.5,92 C245.7,92.4 245.8,92.8 245.9,93.3 C245.8,92.8 245.6,92.4 245.5,92 Z" id="Path" fill="#EC1B5D"></path>
                <path d="M246.9,100.6 C246.9,101 246.9,101.4 246.9,101.9 C247,101.5 247,101.1 246.9,100.6 Z" id="Path" fill="#EC1B5D"></path>
                <path d="M246.8,98.4 C246.8,98.8 246.9,99.2 246.9,99.7 C246.9,99.3 246.9,98.9 246.8,98.4 Z" id="Path" fill="#EC1B5D"></path>
                <path d="M244.6,89.9 C244.8,90.3 245.1,90.8 245.2,91.2 C245,90.7 244.8,90.3 244.6,89.9 Z" id="Path" fill="#EC1B5D"></path>
                <path d="M37.2,62.9 C47.8,68.4 59.9,70.6 71.7,70.7 C84.4,70.8 97,70.7 109.7,70.8 C110.2,70.6 110.6,70.5 111,70.4 C97.9,70.3 84.8,70.4 71.7,70.3 C59.8,70.2 47.8,68 37.2,62.5 C37.2,62.6 37.2,62.7 37.2,62.9 L37.2,62.9 Z" id="Path" fill="#EC1B5D"></path>
                <path d="M185.8,70.8 C199.7,71.3 213.9,72.1 227.1,76.9 C233.1,79.2 239.2,82.4 243,87.8 C245.7,91.4 246.7,95.8 246.9,100.3 C246.9,100.1 246.9,99.9 246.9,99.7 C246.9,99.3 246.8,98.9 246.8,98.4 C246.8,98.1 246.8,97.8 246.7,97.5 C246.6,97.1 246.6,96.7 246.5,96.3 C246.4,96 246.4,95.7 246.4,95.4 C246.3,95 246.2,94.6 246.1,94.2 C246,93.9 245.9,93.6 245.9,93.3 C245.8,92.9 245.6,92.5 245.5,92 C245.4,91.7 245.3,91.5 245.2,91.2 C245,90.8 244.8,90.3 244.6,89.9 C244.5,89.7 244.4,89.5 244.3,89.2 C243.9,88.6 243.5,87.9 243.1,87.4 C239.3,82 233.2,78.8 227.2,76.5 C213.9,71.8 199.8,70.9 185.9,70.4 C185.8,70.5 185.8,70.7 185.8,70.8 L185.8,70.8 Z" id="Path" fill="#EC1B5D"></path>
                <path d="M247,101.9 L247,101.9 C247,101.4 247,101 247,100.6 L247,100.5 C247,101 247,101.5 247,101.9 Z" id="Path" fill="#EC1B5D"></path>
            </g>
            <g id="Group" transform="translate(295.000000, 13.000000)" fill="#56697A">
                <polygon id="Path" points="47.3 0 66 0 66 68.8 48.6 68.8 19.4 30.5 19.4 68.8 0.7 68.8 0.7 0 18.2 0 47.4 38.4 47.4 0"></polygon>
                <polygon id="Path" points="77.5 0 97.9 0 97.9 68.8 77.5 68.8"></polygon>
                <polygon id="Path" points="156.1 0 174.8 0 174.8 68.8 157.4 68.8 128.2 30.5 128.2 68.8 109.5 68.8 109.5 0 127 0 156.2 38.4 156.2 0"></polygon>
                <polygon id="Path" points="186.4 0 242.7 0 242.7 15.7 206.9 15.7 206.9 26.5 239.4 26.5 239.4 42.2 206.9 42.2 206.9 53.1 243.7 53.1 243.7 68.8 186.5 68.8"></polygon>
            </g>
            <g id="Group" transform="translate(266.000000, 109.000000)" fill="#8092A4">
                <path d="M0.4,111.8 L20.5,83.1 C30.1,92.3 44.4,99.5 61.6,99.5 C68.9,99.5 75.7,97.6 75.7,92.6 C75.7,80.4 4.6,92.8 4.6,42.5 C4.6,20.9 22.6,0.3 57.5,0.3 C78.3,0.3 97.1,6.2 111.6,18.1 L91,45.5 C79.9,37.1 65.6,32.9 53.6,32.9 C46,32.9 43.8,35.4 43.8,38.6 C43.8,50.6 114.7,40.3 114.7,87.7 C114.7,115.8 93.9,132.000927 59.7,132.000927 C32.5,132.1 14,124.1 0.4,111.8 Z" id="Path"></path>
                <polygon id="Path" points="154.6 129.8 154.6 36 120.4 36 120.4 2.4 227.2 2.4 227.2 36 193.2 36 193.2 129.8"></polygon>
                <path d="M326,129.8 L321.4,114.9 L275.5,114.9 L270.9,129.8 L227.1,129.8 L274.1,2.3 L322.6,2.3 L369.6,129.8 L326,129.8 Z M298.5,40.2 L285.9,81.3 L311.1,81.3 L298.5,40.2 Z" id="Shape"></path>
                <path d="M369.7,66.2 C369.7,26.8 399.9,0.3 439.8,0.3 C473.2,0.3 490.1,19.8 497.7,37.4 L464.5,52.9 C461.2,43 451.3,34.4 439.8,34.4 C421.3,34.4 408.8,48.5 408.8,66.3 C408.8,84.1 421.2,98.2 439.8,98.2 C451.3,98.2 461.2,89.6 464.5,79.7 L497.7,95 C490.3,112 473.2,132.3 439.8,132.3 C399.9,132.1 369.7,105.3 369.7,66.2 Z" id="Path"></path>
                <polygon id="Path" points="584.1 129.8 555.4 84.9 548.3 94.5 548.3 129.9 509.7 129.9 509.7 2.3 548.3 2.3 548.3 50.1 581.7 2.3 629 2.3 580.8 61.5 631.1 129.7"></polygon>
            </g>
            <path d="M931.9,210.8 C923.5,210.8 916.8,217.6 916.8,225.9 C916.8,234.2 923.6,241 931.9,241 C940.3,241 947,234.2 947,225.9 C947,217.5 940.2,210.8 931.9,210.8 Z" id="Path" fill="#EC1B5D"></path>
        </g>
    </g>
</svg>